# xmcd CD database file
#
# Track frame offsets:
#	150
#	12352
#	29368
#	43525
#	57322
#	71749
#	89393
#	106787
#	119640
#	136395
#	151504
#	168510
#	186002
#	201634
#
# Disc length: 2952 seconds
#
# Revision: 0
# Processed by: cddbd v1.5.2PL0 Copyright (c) Steve Scherf et al.
# Submitted via: CDex 1.51
#
DISCID=c00b860e
DTITLE=Various Artist - Mr Music Country 2012-08
DYEAR=2012
DGENRE=Country
TTITLE0=Eric Church - Hell On The Heart
TTITLE1=Terri Clark - Northern Girl
TTITLE2=Doug Stone - Why Didn't I Think Of That
TTITLE3=The Forester Sisters - (That's What You Do=When You're In Love
TTITLE4=Brad Paisley - Wrapped Around
TTITLE5=Lila McCann - I Will Be
TTITLE6=Joe Diffie - Bigger Than The Beatles
TTITLE7=Tracy Lawrence - Can't Break It To My Heart
TTITLE8=Shelby Lynne - Revelation Road
TTITLE9=Suzy Boggus - Other Side Of The Hill
TTITLE10=Larry Stewart - I'll Cry Tomorrow
TTITLE11=The Nitty Gritty Dirt Band - Make A Little Magic
TTITLE12=Louise Hoffsten - I'll Get By
TTITLE13=Montgomery Gentry - She Couldn't Change Me
EXTD=YEAR: 2012
EXTT0=
EXTT1=
EXTT2=
EXTT3=
EXTT4=
EXTT5=
EXTT6=
EXTT7=
EXTT8=
EXTT9=
EXTT10=
EXTT11=
EXTT12=
EXTT13=
PLAYORDER=
